<svg width="40" height="40" viewBox="0 0 40 40" fill="none" xmlns="http://www.w3.org/2000/svg">
<path d="M8.2125 29.775C9.84167 28.5292 11.6625 27.5466 13.675 26.8272C15.6875 26.1091 17.7958 25.75 20 25.75C22.2042 25.75 24.3125 26.1091 26.325 26.8272C28.3375 27.5466 30.1583 28.5292 31.7875 29.775C32.9056 28.4653 33.7764 26.9799 34.3999 25.3187C35.0222 23.6576 35.3333 21.8847 35.3333 20C35.3333 15.7514 33.8403 12.1334 30.8541 9.14591C27.8666 6.15974 24.2486 4.66666 20 4.66666C15.7514 4.66666 12.134 6.15974 9.14784 9.14591C6.16039 12.1334 4.66667 15.7514 4.66667 20C4.66667 21.8847 4.97845 23.6576 5.602 25.3187C6.22428 26.9799 7.09445 28.4653 8.2125 29.775ZM20 21.9167C18.1153 21.9167 16.5257 21.2701 15.2313 19.977C13.9382 18.6826 13.2917 17.0931 13.2917 15.2083C13.2917 13.3236 13.9382 11.7341 15.2313 10.4397C16.5257 9.14655 18.1153 8.49999 20 8.49999C21.8847 8.49999 23.4743 9.14655 24.7687 10.4397C26.0618 11.7341 26.7083 13.3236 26.7083 15.2083C26.7083 17.0931 26.0618 18.6826 24.7687 19.977C23.4743 21.2701 21.8847 21.9167 20 21.9167ZM20 39.1667C17.3486 39.1667 14.8569 38.6632 12.525 37.6563C10.1931 36.6507 8.16459 35.2854 6.43959 33.5604C4.71459 31.8354 3.34928 29.8069 2.34367 27.475C1.33678 25.143 0.833336 22.6514 0.833336 20C0.833336 17.3486 1.33678 14.8569 2.34367 12.525C3.34928 10.1931 4.71459 8.16458 6.43959 6.43958C8.16459 4.71458 10.1931 3.34863 12.525 2.34174C14.8569 1.33613 17.3486 0.833328 20 0.833328C22.6514 0.833328 25.1431 1.33613 27.475 2.34174C29.8069 3.34863 31.8354 4.71458 33.5604 6.43958C35.2854 8.16458 36.6507 10.1931 37.6563 12.525C38.6632 14.8569 39.1667 17.3486 39.1667 20C39.1667 22.6514 38.6632 25.143 37.6563 27.475C36.6507 29.8069 35.2854 31.8354 33.5604 33.5604C31.8354 35.2854 29.8069 36.6507 27.475 37.6563C25.1431 38.6632 22.6514 39.1667 20 39.1667Z" fill="black"/>
</svg>
