<svg width="119" height="114" viewBox="0 0 119 114" fill="none" xmlns="http://www.w3.org/2000/svg">
<path d="M54.5 113.25C47.0646 113.25 40.0771 111.838 33.5375 109.014C26.9979 106.194 21.3094 102.366 16.4719 97.5281C11.6344 92.6906 7.80558 87.0021 4.9855 80.4625C2.16183 73.9229 0.75 66.9354 0.75 59.5C0.75 52.0646 2.16183 45.0771 4.9855 38.5375C7.80558 31.9979 11.6344 26.3094 16.4719 21.4719C21.3094 16.6344 26.9979 12.8038 33.5375 9.98012C40.0771 7.16004 47.0646 5.75 54.5 5.75C58.5312 5.75 62.4514 6.17462 66.2605 7.02387C70.066 7.87671 73.6708 9.10938 77.075 10.7219C76.7167 11.6177 76.4479 12.5583 76.2687 13.5437C76.0896 14.5292 76 15.5146 76 16.5C76 17.7542 76.1344 18.9403 76.4031 20.0583C76.6719 21.1798 77.0302 22.2333 77.4781 23.2188C74.1635 21.1583 70.5802 19.5225 66.7281 18.3114C62.876 17.1038 58.8 16.5 54.5 16.5C42.5854 16.5 32.441 20.6871 24.0667 29.0614C15.6889 37.4392 11.5 47.5854 11.5 59.5C11.5 71.4146 15.6889 81.5608 24.0667 89.9386C32.441 98.3129 42.5854 102.5 54.5 102.5C66.4146 102.5 76.5608 98.3129 84.9386 89.9386C93.3129 81.5608 97.5 71.4146 97.5 59.5C97.5 55.9167 97.0754 52.4677 96.2261 49.1531C95.3733 45.8385 94.1854 42.7031 92.6625 39.7469C94.0958 40.9115 95.6635 41.8073 97.3656 42.4344C99.0677 43.0615 100.904 43.375 102.875 43.375C103.323 43.375 103.794 43.3535 104.289 43.3105C104.78 43.2639 105.249 43.1958 105.697 43.1063C106.503 45.7042 107.13 48.3702 107.578 51.1042C108.026 53.8347 108.25 56.6333 108.25 59.5C108.25 66.9354 106.838 73.9229 104.014 80.4625C101.194 87.0021 97.3656 92.6906 92.5281 97.5281C87.6906 102.366 82.0021 106.194 75.4625 109.014C68.9229 111.838 61.9354 113.25 54.5 113.25ZM73.3125 54.125C75.6417 54.125 77.5677 53.3635 79.0906 51.8406C80.6135 50.3177 81.375 48.3917 81.375 46.0625C81.375 43.7333 80.6135 41.8073 79.0906 40.2844C77.5677 38.7615 75.6417 38 73.3125 38C70.9833 38 69.0573 38.7615 67.5344 40.2844C66.0115 41.8073 65.25 43.7333 65.25 46.0625C65.25 48.3917 66.0115 50.3177 67.5344 51.8406C69.0573 53.3635 70.9833 54.125 73.3125 54.125ZM35.6875 54.125C38.0167 54.125 39.9427 53.3635 41.4656 51.8406C42.9885 50.3177 43.75 48.3917 43.75 46.0625C43.75 43.7333 42.9885 41.8073 41.4656 40.2844C39.9427 38.7615 38.0167 38 35.6875 38C33.3583 38 31.4323 38.7615 29.9094 40.2844C28.3865 41.8073 27.625 43.7333 27.625 46.0625C27.625 48.3917 28.3865 50.3177 29.9094 51.8406C31.4323 53.3635 33.3583 54.125 35.6875 54.125ZM54.5 89.0625C60.8604 89.0625 66.4809 87.3156 71.3614 83.8219C76.2455 80.3281 79.7625 75.8042 81.9125 70.25H27.0875C29.2375 75.8042 32.7545 80.3281 37.6386 83.8219C42.5191 87.3156 48.1396 89.0625 54.5 89.0625ZM97.5 21.875H92.125C90.6021 21.875 89.3264 21.359 88.298 20.327C87.266 19.2986 86.75 18.0229 86.75 16.5C86.75 14.9771 87.266 13.6996 88.298 12.6676C89.3264 11.6392 90.6021 11.125 92.125 11.125H97.5V5.75C97.5 4.22708 98.016 2.94962 99.048 1.91762C100.076 0.889208 101.352 0.375 102.875 0.375C104.398 0.375 105.674 0.889208 106.702 1.91762C107.734 2.94962 108.25 4.22708 108.25 5.75V11.125H113.625C115.148 11.125 116.424 11.6392 117.452 12.6676C118.484 13.6996 119 14.9771 119 16.5C119 18.0229 118.484 19.2986 117.452 20.327C116.424 21.359 115.148 21.875 113.625 21.875H108.25V27.25C108.25 28.7729 107.734 30.0504 106.702 31.0824C105.674 32.1108 104.398 32.625 102.875 32.625C101.352 32.625 100.076 32.1108 99.048 31.0824C98.016 30.0504 97.5 28.7729 97.5 27.25V21.875Z" fill="white"/>
</svg>
