<svg width="70" height="70" viewBox="0 0 70 70" fill="none" xmlns="http://www.w3.org/2000/svg">
<path d="M13.9875 52.425C16.8917 50.2041 20.1375 48.4525 23.725 47.1701C27.3125 45.89 31.0708 45.25 35 45.25C38.9292 45.25 42.6875 45.89 46.275 47.1701C49.8625 48.4525 53.1083 50.2041 56.0125 52.425C58.0056 50.0903 59.5579 47.4423 60.6694 44.4812C61.7787 41.5201 62.3333 38.3597 62.3333 35C62.3333 27.4264 59.6718 20.9768 54.3486 15.6514C49.0232 10.3282 42.5736 7.66665 35 7.66665C27.4264 7.66665 20.978 10.3282 15.6548 15.6514C10.3294 20.9768 7.66668 27.4264 7.66668 35C7.66668 38.3597 8.22245 41.5201 9.33401 44.4812C10.4433 47.4423 11.9945 50.0903 13.9875 52.425ZM35 38.4166C31.6403 38.4166 28.8067 37.2641 26.4993 34.959C24.1942 32.6516 23.0417 29.818 23.0417 26.4583C23.0417 23.0986 24.1942 20.265 26.4993 17.9576C28.8067 15.6525 31.6403 14.5 35 14.5C38.3597 14.5 41.1933 15.6525 43.5007 17.9576C45.8058 20.265 46.9583 23.0986 46.9583 26.4583C46.9583 29.818 45.8058 32.6516 43.5007 34.959C41.1933 37.2641 38.3597 38.4166 35 38.4166ZM35 69.1666C30.2736 69.1666 25.832 68.2692 21.675 66.4743C17.5181 64.6817 13.9021 62.2479 10.8271 59.1729C7.75209 56.0979 5.31829 52.4819 3.52568 48.325C1.73079 44.168 0.833344 39.7264 0.833344 35C0.833344 30.2736 1.73079 25.8319 3.52568 21.675C5.31829 17.518 7.75209 13.9021 10.8271 10.8271C13.9021 7.75206 17.5181 5.31712 21.675 3.52223C25.832 1.72962 30.2736 0.833313 35 0.833313C39.7264 0.833313 44.1681 1.72962 48.325 3.52223C52.482 5.31712 56.0979 7.75206 59.1729 10.8271C62.2479 13.9021 64.6817 17.518 66.4743 21.675C68.2692 25.8319 69.1667 30.2736 69.1667 35C69.1667 39.7264 68.2692 44.168 66.4743 48.325C64.6817 52.4819 62.2479 56.0979 59.1729 59.1729C56.0979 62.2479 52.482 64.6817 48.325 66.4743C44.1681 68.2692 39.7264 69.1666 35 69.1666Z" fill="white"/>
</svg>
