<svg width="119" height="123" viewBox="0 0 119 123" fill="none" xmlns="http://www.w3.org/2000/svg">
<path d="M22.25 85.375C20.7271 85.375 19.4496 84.859 18.4176 83.827C17.3892 82.7986 16.875 81.5229 16.875 80V53.125C16.875 51.6021 17.3892 50.3246 18.4176 49.2926C19.4496 48.2642 20.7271 47.75 22.25 47.75C23.7729 47.75 25.0504 48.2642 26.0824 49.2926C27.1108 50.3246 27.625 51.6021 27.625 53.125V80C27.625 81.5229 27.1108 82.7986 26.0824 83.827C25.0504 84.859 23.7729 85.375 22.25 85.375ZM54.5 85.375C52.9771 85.375 51.7014 84.859 50.673 83.827C49.641 82.7986 49.125 81.5229 49.125 80V53.125C49.125 51.6021 49.641 50.3246 50.673 49.2926C51.7014 48.2642 52.9771 47.75 54.5 47.75C56.0229 47.75 57.3004 48.2642 58.3324 49.2926C59.3608 50.3246 59.875 51.6021 59.875 53.125V80C59.875 81.5229 59.3608 82.7986 58.3324 83.827C57.3004 84.859 56.0229 85.375 54.5 85.375ZM7.2 37C5.40833 37 3.88542 36.3729 2.63125 35.1188C1.37708 33.8646 0.75 32.3417 0.75 30.55C0.75 29.2063 1.06354 27.9969 1.69062 26.9219C2.31771 25.8469 3.25833 24.9958 4.5125 24.3688L49.6625 1.79376C50.3792 1.34584 51.1639 1.0323 52.0168 0.853131C52.866 0.673964 53.6938 0.584381 54.5 0.584381C55.3063 0.584381 56.1358 0.673964 56.9886 0.853131C57.8379 1.0323 58.6208 1.34584 59.3375 1.79376L104.488 24.3688C105.742 24.9958 106.682 25.8469 107.309 26.9219C107.936 27.9969 108.25 29.2063 108.25 30.55C108.25 32.3417 107.623 33.8646 106.369 35.1188C105.115 36.3729 103.592 37 101.8 37H7.2ZM6.125 106.875C4.60208 106.875 3.32642 106.359 2.298 105.327C1.266 104.299 0.75 103.023 0.75 101.5C0.75 99.9771 1.266 98.7014 2.298 97.673C3.32642 96.641 4.60208 96.125 6.125 96.125H65.5188C65.6979 98.0063 65.9219 99.8194 66.1906 101.564C66.4594 103.313 66.8625 105.083 67.4 106.875H6.125ZM81.375 65.2188V53.125C81.375 51.6021 81.891 50.3246 82.923 49.2926C83.9514 48.2642 85.2271 47.75 86.75 47.75C88.2729 47.75 89.5486 48.2642 90.577 49.2926C91.609 50.3246 92.125 51.6021 92.125 53.125V59.8438L81.375 65.2188ZM97.5 123C91.3188 121.477 86.191 117.915 82.1168 112.314C78.0389 106.717 76 100.515 76 93.7063V83.3594C76 82.374 76.2473 81.4333 76.7418 80.5375C77.2327 79.6417 77.9708 78.9698 78.9563 78.5219L95.0813 70.4594C95.7979 70.0115 96.6042 69.7875 97.5 69.7875C98.3958 69.7875 99.2021 70.0115 99.9188 70.4594L116.044 78.5219C117.029 78.9698 117.769 79.6417 118.264 80.5375C118.755 81.4333 119 82.374 119 83.3594V93.7063C119 100.515 116.963 106.717 112.889 112.314C108.811 117.915 103.681 121.477 97.5 123ZM109.459 91.1531C110.266 90.3469 110.669 89.4062 110.669 88.3313C110.669 87.2562 110.266 86.3156 109.459 85.5094C108.653 84.7031 107.713 84.3215 106.638 84.3645C105.563 84.4111 104.622 84.7927 103.816 85.5094L93.6031 95.4531L91.1844 93.0344C90.3781 92.2281 89.4375 91.8465 88.3625 91.8895C87.2875 91.9361 86.3469 92.3625 85.5406 93.1688C84.7344 93.975 84.3313 94.9156 84.3313 95.9906C84.3313 97.0656 84.7344 98.0063 85.5406 98.8125L89.8406 103.113C90.3781 103.65 90.9604 104.053 91.5875 104.322C92.2146 104.591 92.8865 104.725 93.6031 104.725C94.3198 104.725 94.9917 104.591 95.6188 104.322C96.2458 104.053 96.8281 103.65 97.3656 103.113L109.459 91.1531Z" fill="#006EB3"/>
</svg>
